<svg width="20" height="20" viewBox="0 0 20 20" fill="none" xmlns="http://www.w3.org/2000/svg">
<g clip-path="url(#clip0_114942_21569)">
<path d="M9.91841 8.37334C9.91841 8.37334 8.39706 8.65779 9.64674 6.1689C10.5523 4.35557 10.4617 2.25779 9.64674 1.15557C8.34273 -0.639989 5.77093 -0.0533226 6.0426 0.977788C6.94816 4.49779 4.90159 5.54668 3.83303 7.75112C2.74635 10.0089 2.87313 13.1911 3.36214 16.0356C3.67003 17.8133 4.46692 20 7.36472 20H11.3854L9.91841 8.37334Z" fill="#FFDD67"/>
<path d="M7.81763 19.5022C4.91983 19.5022 4.26783 17.3156 3.95994 15.5378C3.47093 12.6934 3.38038 10.4356 4.34027 8.12447C5.37262 5.63558 6.45929 5.56447 6.45929 0.622245C6.45929 0.373356 6.60418 0.213356 6.73096 0.106689C6.24196 0.266689 5.97029 0.533356 5.97029 0.942245C5.97029 4.64002 4.88361 5.54669 3.81505 7.76891C2.74648 10.0089 2.87326 13.1911 3.36227 16.0356C3.67016 17.8134 4.46705 20 7.36485 20H11.3856V19.5022H7.79952H7.81763Z" fill="#EBA352"/>
<path d="M14.8991 11.271H9.91851C8.17983 11.271 8.17983 8.35547 9.91851 8.35547H14.8991C16.6378 8.35547 16.6378 11.271 14.8991 11.271Z" fill="#FFDD67"/>
<path d="M15.2795 10.7912H10.2989C9.1217 10.7912 8.74137 9.4756 9.15792 8.60449C8.23425 9.29783 8.4697 11.2712 9.90049 11.2712H14.8811C15.4425 11.2712 15.8229 10.9689 16.0221 10.5423C15.8229 10.6845 15.5693 10.7912 15.2795 10.7912Z" fill="#EBA352"/>
<path d="M15.4243 14.1866H9.44759C7.3648 14.1866 7.3648 11.271 9.44759 11.271H15.4243C17.5071 11.271 17.5071 14.1866 15.4243 14.1866Z" fill="#FFDD67"/>
<path d="M15.8951 13.7067H9.91838C8.50571 13.7067 8.05292 12.3911 8.54193 11.52C7.41903 12.2134 7.72692 14.1867 9.44749 14.1867H15.4242C16.0943 14.1867 16.5471 13.8845 16.8007 13.4578C16.5652 13.6 16.2573 13.7067 15.8951 13.7067Z" fill="#EBA352"/>
<path d="M14.8628 17.1023H9.80978C8.05299 17.1023 8.05299 14.1868 9.80978 14.1868H14.8628C16.6196 14.1868 16.6196 17.1023 14.8628 17.1023Z" fill="#FFDD67"/>
<path d="M15.2613 16.6222H10.2083C9.01296 16.6222 8.63263 15.3067 9.04919 14.4355C8.1074 15.1289 8.36096 17.1022 9.80986 17.1022H14.8629C15.4425 17.1022 15.8228 16.8 16.022 16.3733C15.8228 16.5155 15.5692 16.6222 15.2613 16.6222Z" fill="#EBA352"/>
<path d="M14.3194 20H11.0594C9.17584 20 9.17584 17.0845 11.0594 17.0845H14.3194C16.203 17.0845 16.203 20 14.3194 20Z" fill="#FFDD67"/>
<path d="M14.7542 19.5199H11.4941C10.2263 19.5199 9.80978 18.2044 10.2626 17.3333C9.24833 18.0266 9.52 19.9999 11.0776 19.9999H14.3376C14.9534 19.9999 15.3518 19.6977 15.5692 19.271C15.3518 19.4133 15.0802 19.5199 14.7542 19.5199Z" fill="#EBA352"/>
</g>
<defs>
<clipPath id="clip0_114942_21569">
<rect width="20" height="20" fill="white"/>
</clipPath>
</defs>
</svg>
