<svg width="23" height="23" viewBox="0 0 23 23" fill="none" xmlns="http://www.w3.org/2000/svg">
<mask id="mask0_164677_7824" style="mask-type:alpha" maskUnits="userSpaceOnUse" x="0" y="0" width="23" height="23">
<rect width="23" height="23" fill="#D9D9D9"/>
</mask>
<g mask="url(#mask0_164677_7824)">
<path d="M6.94787 19.1666C6.64439 19.1666 6.39683 19.0469 6.20516 18.8073C6.01349 18.5677 5.95759 18.3041 6.03745 18.0166L6.70828 15.3333H4.57599C4.25655 15.3333 4.00099 15.2097 3.80933 14.9624C3.61766 14.7145 3.56176 14.4389 3.64162 14.1354C3.68953 13.9118 3.80134 13.7361 3.97703 13.6083C4.15273 13.4805 4.35238 13.4166 4.57599 13.4166H7.18745L8.14578 9.58331H5.53433C5.21488 9.58331 4.95933 9.45969 4.76766 9.21244C4.57599 8.96455 4.52009 8.68887 4.59995 8.3854C4.64787 8.16179 4.75967 7.98609 4.93537 7.85831C5.11106 7.73054 5.31071 7.66665 5.53433 7.66665H8.62495L9.41558 4.5281C9.46349 4.32047 9.56731 4.15276 9.72703 4.02498C9.88676 3.8972 10.0784 3.83331 10.302 3.83331C10.6055 3.83331 10.8531 3.9531 11.0447 4.19269C11.2364 4.43227 11.2923 4.69581 11.2125 4.98331L10.5416 7.66665H14.375L15.1656 4.5281C15.2135 4.32047 15.3173 4.15276 15.477 4.02498C15.6368 3.8972 15.8284 3.83331 16.052 3.83331C16.3555 3.83331 16.6031 3.9531 16.7947 4.19269C16.9864 4.43227 17.0423 4.69581 16.9625 4.98331L16.2916 7.66665H18.4239C18.7434 7.66665 18.9989 7.79027 19.1906 8.03752C19.3822 8.28541 19.4381 8.56109 19.3583 8.86456C19.3104 9.08817 19.1986 9.26387 19.0229 9.39165C18.8472 9.51942 18.6475 9.58331 18.4239 9.58331H15.8125L14.8541 13.4166H17.4656C17.785 13.4166 18.0406 13.5403 18.2322 13.7875C18.4239 14.0354 18.4798 14.3111 18.4 14.6146C18.352 14.8382 18.2402 15.0139 18.0645 15.1416C17.8888 15.2694 17.6892 15.3333 17.4656 15.3333H14.375L13.5843 18.4719C13.5364 18.6795 13.4326 18.8472 13.2729 18.975C13.1131 19.1028 12.9215 19.1666 12.6979 19.1666C12.3944 19.1666 12.1468 19.0469 11.9552 18.8073C11.7635 18.5677 11.7076 18.3041 11.7875 18.0166L12.4583 15.3333H8.62495L7.83433 18.4719C7.78641 18.6795 7.68259 18.8472 7.52287 18.975C7.36314 19.1028 7.17148 19.1666 6.94787 19.1666ZM9.10412 13.4166H12.9375L13.8958 9.58331H10.0625L9.10412 13.4166Z" fill="#686868"/>
</g>
</svg>
